<svg width="289" height="204" viewBox="0 0 289 204" fill="none" xmlns="http://www.w3.org/2000/svg">
<path d="M289 200.754H0V30.4016H36.2424V47.1406H43.58V2.7984H67.5243V51.6365H86.3671V-3.76172e-05L125.494 18.1124V74.2404H159.158V53.8755H171.867V64.5244H180.838V32.8766H199.847V59.423H215.395C215.829 60.2079 215.944 61.1233 215.944 62.0634C215.944 62.7563 215.881 63.462 215.837 64.1381C215.823 64.3668 215.814 64.6017 215.814 64.8383C215.814 66.4679 216.214 68.2063 217.655 68.9378C218.13 69.1794 218.63 69.2686 219.146 69.2686C219.411 69.2686 219.679 69.2456 219.95 69.2069C216.523 73.02 214.755 75.5847 213.642 79.7599C212.907 82.5107 213.826 85.2705 215.726 87.3794L214.754 89.9272C214.754 89.9278 214.754 89.9278 214.754 89.9278L212.672 95.3828L197.319 92.4056L196.615 95.0179L196.399 95.8195L212.799 102.741C213.397 102.993 214.004 103.108 214.593 103.109C216.183 103.109 217.642 102.266 218.438 100.984C219.743 109.765 221.609 120.177 221.992 124.959C224.526 125.663 227.4 126.02 230.389 126.02C238.74 126.02 247.971 123.234 253.052 117.476C249.947 106.592 241.384 98.8327 239.435 96.1396C237.487 93.4415 236.189 90.1588 236.478 86.7403C236.53 86.1394 236.629 85.5429 236.759 84.9498C236.76 84.9481 236.762 84.9459 236.763 84.9442C236.825 84.6622 236.894 84.3808 236.968 84.1C238.327 83.9665 239.678 83.6521 240.997 83.2972C243.669 82.578 246.333 81.667 248.587 80.1002C250.814 78.5519 252.62 76.2826 253.087 73.6669C253.092 73.6355 253.098 73.6047 253.103 73.5733C253.164 73.205 253.194 72.8311 253.193 72.4561C253.193 70.1263 252.033 67.7673 249.939 66.6529C248.516 65.8955 246.669 65.6444 245.79 64.3214C245.456 63.8175 245.326 63.2574 245.326 62.6744C245.326 61.6351 245.742 60.524 246.153 59.5329C246.54 58.6029 246.9 57.5468 246.898 56.5641C246.898 55.9138 246.739 55.2949 246.324 54.7668C244.432 52.3569 239.608 54.5566 237.718 52.1455C236.985 51.2099 237.031 49.9301 236.962 48.7568C236.962 48.7512 236.962 48.7461 236.962 48.7405C236.75 45.2072 235.073 41.8218 232.503 39.3182V11.5514H265.294V27.9361H289V200.754Z" fill="#7CD19E"/>
<path d="M246.381 177.428C245.902 172.107 242.968 167.572 239.883 163.298C236.167 158.152 232.832 153.219 231.772 146.897C231.616 145.963 230.134 146.27 230.29 147.203C231.234 152.833 233.893 157.562 237.229 162.184C240.664 166.941 244.36 171.755 244.899 177.734C244.984 178.673 246.466 178.361 246.381 177.428" fill="#27425A"/>
<path d="M58.9716 110.832C55.1978 125.802 54.998 141.369 58.5034 156.398L58.4815 156.464L58.4786 156.47C58.1959 157.181 57.9208 157.894 57.635 158.611C57.6099 158.683 57.595 158.751 57.5977 158.818C57.5968 158.983 57.6752 159.125 57.7898 159.225L57.7966 159.228C58.0618 159.445 58.4924 159.454 58.6514 159.061C58.8167 158.654 58.9751 158.244 59.1335 157.835C61.7703 151.095 64.0967 144.218 63.6708 136.901C63.1927 128.569 61.4905 120.175 60.0444 111.944L60.0403 111.917C59.975 111.565 59.9126 111.207 59.8479 110.855L59.8276 110.789C59.701 110.369 59.0907 110.38 58.9716 110.832" fill="#7CD19E"/>
<path d="M81.6194 142.531L81.5569 142.628C78.3103 151.645 75.5602 160.824 73.4222 170.15C72.0471 176.091 70.6067 182.153 70.1784 188.257L70.1703 188.402V188.419L70.1744 188.429C70.101 189.347 70.0623 190.265 70.0553 191.188C70.0235 191.256 69.9912 191.325 69.9628 191.403C70.1599 192.218 70.3391 193.017 70.5142 193.805C70.6368 193.273 70.7975 192.748 70.9899 192.229C71.009 192.172 71.0275 192.113 71.0529 192.059C71.2177 191.619 71.3986 191.178 71.6015 190.747L71.7911 190.343L71.8402 190.257C73.2528 187.358 75.2914 184.597 76.652 181.882C78.6068 177.992 80.2137 173.881 80.9107 169.583C82.1615 161.982 80.9084 154.266 81.6165 146.64L81.6217 146.593C81.7379 145.329 81.9055 144.064 82.1569 142.803C82.2089 142.511 81.7962 142.336 81.6194 142.531" fill="#7CD19E"/>
<path d="M59.2259 127.905C59.99 137.749 59.4016 147.606 57.4701 157.3C57.2608 158.351 58.9415 158.668 59.1513 157.618C61.1096 147.79 61.709 137.775 60.935 127.794C60.8524 126.727 59.1432 126.839 59.2259 127.905" fill="#27425A"/>
<path d="M69.4496 147.015C67.9272 156.682 66.4053 166.349 64.8829 176.017C64.7164 177.073 66.3972 177.393 66.5637 176.336C68.0861 166.668 69.608 157.001 71.1304 147.333C71.2969 146.277 69.6161 145.956 69.4496 147.015" fill="#27425A"/>
<path d="M78.204 160.778C74.6372 171.174 71.7622 181.772 69.5929 192.524C69.3808 193.575 71.0616 193.892 71.2738 192.842C73.443 182.09 76.318 171.492 79.8854 161.096C80.2328 160.083 78.5479 159.778 78.204 160.778Z" fill="#27425A"/>
<path d="M121.125 193.179C122.877 194.909 124.727 196.547 126.48 198.277C128.136 199.905 129.473 201.759 130.982 203.48L130.995 203.495H132.015C131.949 203.355 131.884 203.214 131.812 203.077C131.839 202.779 131.882 202.523 131.894 202.229L131.885 202.184C132.293 195.929 129.923 190.007 125.823 185.052C120.449 178.564 111.979 172.155 113.893 162.781C113.984 162.348 113.412 162.192 113.175 162.462C113.115 162.435 113.035 162.441 112.98 162.492L112.961 162.507C112.155 163.559 111.528 164.691 111.078 165.873L111.068 165.893C108.943 171.353 110.271 177.866 113.024 182.929C115.116 186.76 118.01 190.093 121.125 193.179" fill="#7CD19E"/>
<path d="M133.161 174.827C129.203 166.218 121.261 159.675 120.967 149.698C120.962 149.379 120.59 149.361 120.422 149.549C120.387 149.586 120.351 149.623 120.331 149.678C119.91 151.002 119.567 152.313 119.326 153.612C119.076 154.841 118.911 156.057 118.834 157.264C118.474 162.451 119.617 167.458 122.675 172.282C127.128 179.285 133.726 184.907 136.943 192.595C136.987 193.294 136.964 193.993 136.821 194.638L136.817 194.648L136.813 194.657C136.695 195.238 136.496 195.758 136.159 196.241C135.97 196.525 136.375 196.869 136.589 196.584C137.136 195.873 137.425 195.071 137.559 194.229L137.604 194.348L137.647 194.438C137.688 194.503 137.749 194.553 137.816 194.577C138.103 194.699 138.533 194.44 138.405 194.06C138.258 193.631 138.106 193.213 137.942 192.806C137.837 192.531 137.718 192.261 137.608 191.995C137.47 190.464 137.066 188.907 136.83 187.532C136.076 183.195 135.014 178.857 133.161 174.827" fill="#7CD19E"/>
<path d="M138.545 194.529C137.318 188.907 134.829 183.713 132.075 178.657C129.004 173.018 125.81 167.438 122.672 161.833C122.145 160.893 120.727 161.825 121.249 162.757C124.269 168.151 127.327 173.526 130.303 178.943C133.124 184.079 135.679 189.35 136.928 195.073C137.155 196.118 138.771 195.564 138.545 194.529" fill="#27425A"/>
<path d="M120.621 187.863C124.667 192.729 128.384 197.507 130.328 203.495H132.117C130.347 197.637 126.948 192.83 123.02 188.11C119.014 183.295 114.895 178.408 113.533 172.209C113.304 171.164 111.688 171.719 111.915 172.752C113.192 178.563 116.849 183.327 120.621 187.863Z" fill="#27425A"/>
<path d="M73.565 201.194H133.805C138.403 201.194 141.147 197.578 139.934 193.119L94.1447 24.7694C92.9314 20.3094 88.2207 16.6947 83.6222 16.6947H23.3824C18.7843 16.6947 16.04 20.3094 17.2529 24.7694L63.0425 193.119C64.2557 197.578 68.9664 201.194 73.565 201.194" fill="#36414A"/>
<path d="M74.1297 194.424H131.963C136.561 194.424 139.306 190.809 138.093 186.349L94.1446 24.7694C92.9314 20.3093 88.2207 16.6947 83.6221 16.6947H25.7892C21.1907 16.6947 18.4463 20.3093 19.6595 24.7694L63.6077 186.349C64.821 190.809 69.5317 194.424 74.1297 194.424Z" fill="#607783"/>
<path d="M27.2423 19.8788H86.9399C89.5686 19.8788 92.2621 21.9456 92.9557 24.4957L138.894 193.393C139.588 195.942 138.018 198.01 135.39 198.01H75.692C73.0633 198.01 70.3698 195.942 69.6768 193.393L23.7379 24.4957C23.0443 21.9456 24.6133 19.8788 27.2423 19.8788Z" fill="#EDF0F1"/>
<path d="M62.1535 21.4467C59.8224 21.4882 61.5611 26.2868 63.8933 26.2459C66.2244 26.2039 64.4857 21.4053 62.1535 21.4467Z" fill="#36414A"/>
<path d="M67.2742 48.2186C65.8654 48.2225 64.4917 47.9312 63.153 47.3445C61.8279 46.7577 60.6635 45.9459 59.6598 44.909C58.6653 43.8592 57.9476 42.6867 57.5068 41.3915C57.0661 40.0963 56.9873 38.9284 57.2704 37.8879C57.5628 36.8345 58.1775 36.0112 59.1146 35.4181C60.0518 34.825 61.2247 34.5265 62.6335 34.5225C63.6901 34.5195 64.7222 34.6835 65.7297 35.0144C66.7372 35.3453 67.6617 35.8305 68.503 36.4699L67.8557 37.3767C66.3827 36.3155 64.7995 35.7872 63.1062 35.792C61.9819 35.7951 61.0421 36.0417 60.2868 36.5316C59.5315 37.0215 59.0337 37.6904 58.7934 38.5382C58.5667 39.3861 58.6323 40.3358 58.9902 41.3873C59.348 42.4389 59.9283 43.3871 60.7311 44.2321C61.5475 45.077 62.4991 45.7418 63.5861 46.2265C64.6731 46.7112 65.7788 46.952 66.9031 46.9488C68.6099 46.944 69.8286 46.4015 70.5593 45.3212L71.822 46.2226C71.4171 46.8655 70.8197 47.3614 70.03 47.7102C69.2494 48.0462 68.3308 48.2156 67.2742 48.2186ZM75.3691 71.8855C73.9603 71.8895 72.5798 71.5981 71.2276 71.0115C69.8846 70.4119 68.7113 69.5937 67.7075 68.5568C66.7174 67.5198 66.0019 66.3538 65.5611 65.0585C65.1203 63.7633 65.0415 62.5954 65.3247 61.5549C65.6214 60.5143 66.2383 59.6975 67.1755 59.1044C68.1218 58.4984 69.2993 58.1935 70.7081 58.1895C72.1169 58.1855 73.4839 58.4769 74.809 59.0637C76.1476 59.6504 77.3209 60.4686 78.329 61.5183C79.3327 62.5552 80.055 63.7213 80.4958 65.0165C80.9366 66.3118 81.0108 67.4861 80.7184 68.5395C80.4217 69.58 79.8048 70.3969 78.8677 70.99C77.9441 71.583 76.7779 71.8816 75.3691 71.8855ZM74.937 70.6159C76.0614 70.6128 76.9966 70.3727 77.7427 69.8956C78.4845 69.4058 78.9687 68.7369 79.1954 67.8891C79.4178 67.0284 79.35 66.0723 78.9922 65.0208C78.6343 63.9692 78.054 63.0209 77.2512 62.176C76.444 61.3182 75.5059 60.6534 74.4368 60.1815C73.3634 59.6967 72.2645 59.4559 71.1402 59.4591C70.0158 59.4622 69.076 59.7088 68.3207 60.1987C67.5746 60.6757 67.0836 61.3446 66.8477 62.2053C66.621 63.0531 66.6865 64.0028 67.0444 65.0544C67.4023 66.1059 67.9848 67.0606 68.7919 67.9184C69.6083 68.7633 70.5532 69.4281 71.6266 69.9128C72.7092 70.3847 73.8127 70.6191 74.937 70.6159ZM72.584 81.9894L78.375 81.9732C79.8786 81.9689 81.3043 82.2537 82.6521 82.8276C83.9956 83.3886 85.1602 84.1812 86.146 85.2053C87.1274 86.2166 87.8407 87.3763 88.2859 88.6843C88.731 89.9924 88.8098 91.1602 88.5223 92.188C88.2304 93.2028 87.6069 94.0004 86.6519 94.5808C85.6925 95.1483 84.461 95.4341 82.9574 95.4383L77.1664 95.4546L72.584 81.9894ZM82.4571 94.2075C83.7034 94.204 84.7153 93.9701 85.4929 93.5058C86.2661 93.0287 86.7704 92.379 87.0058 91.5568C87.2369 90.7218 87.1692 89.7657 86.8026 88.6885C86.436 87.6113 85.8557 86.663 85.0616 85.8437C84.2632 85.0116 83.3181 84.3661 82.2263 83.907C81.1301 83.4352 79.9589 83.201 78.7126 83.2045L74.5065 83.2163L78.251 94.2193L82.4571 94.2075Z" fill="#51C292"/>
<path d="M0 200.754V204H289V200.754H0" fill="#36414A"/>
<path d="M216.718 84.7816L212.672 95.3828L197.319 92.4055L196.615 95.0179L196.399 95.8195L212.799 102.74C216.056 104.115 219.589 101.44 219.003 98.0417L216.718 84.7816" fill="#FABEB3"/>
<path d="M219.003 98.0417L216.718 84.7816L214.754 89.9272C215.818 93.3423 216.585 96.7658 215.873 100.428C216.233 100.376 216.593 100.315 216.958 100.234C216.593 100.315 216.233 100.376 215.873 100.428C215.849 100.55 215.829 100.671 215.802 100.794C215.829 100.671 215.849 100.55 215.873 100.428C209.013 101.402 203.014 97.2204 196.615 95.0179L196.399 95.8195L212.799 102.74C216.056 104.115 219.589 101.44 219.003 98.0417" fill="#F79984"/>
<path d="M190.984 89.4154L188.013 91.2407L190.984 94.9927L193.434 96.0645L196.399 95.8195L197.319 92.4056L190.984 89.4154" fill="#F79984"/>
<path d="M196.615 95.0179L194.879 94.2706C193.751 93.6921 192.889 92.7223 192.467 91.5546L192.13 90.6212L188.775 89.1116C188.556 89.0135 188.442 88.7769 188.504 88.551C188.577 88.2897 188.857 88.1378 189.125 88.2146L193.569 88.8038C194.655 88.9479 195.611 89.5684 196.164 90.4856L197.319 92.4056L196.615 95.0179" fill="#FABEB3"/>
<path d="M203.706 47.6463C203.368 51.4722 205.963 55.3627 209.698 56.633C211.568 57.2687 213.814 57.4049 215.045 58.9079C216.205 60.3222 215.955 62.3347 215.837 64.1381C215.72 65.9409 216.005 68.0998 217.655 68.9378C218.797 69.5186 220.081 69.2187 221.384 68.9188C222.46 68.671 223.549 68.4232 224.582 68.671C226.839 69.212 227.817 71.817 227.926 74.0689C228.034 76.3202 227.677 78.7161 228.745 80.7179C229.787 82.6721 232.035 83.8163 234.286 84.0893C236.537 84.3623 238.811 83.8852 240.997 83.2972C243.669 82.578 246.333 81.667 248.587 80.1002C250.841 78.5333 252.663 76.2288 253.103 73.5733C253.543 70.9178 252.37 67.9467 249.939 66.6529C248.516 65.8955 246.669 65.6444 245.79 64.3214C244.859 62.9194 245.511 61.0801 246.153 59.5329C246.795 57.9862 247.365 56.0931 246.324 54.7668C244.432 52.3569 239.608 54.5566 237.718 52.1455C236.985 51.2099 237.031 49.9301 236.962 48.7568C236.629 43.0702 232.502 37.7648 226.955 35.8942C223.277 34.653 219.124 34.9731 215.614 36.5641C213.821 37.3764 212.61 38.8182 210.957 39.7353C209.371 40.6154 207.809 40.8789 206.431 42.1946C204.919 43.6392 203.889 45.5839 203.706 47.6463" fill="#BE2E22"/>
<path d="M249.939 66.6529C248.516 65.8955 246.669 65.6444 245.79 64.3214C244.859 62.9194 245.511 61.0801 246.153 59.5329C246.795 57.9862 247.365 56.0932 246.324 54.7668C244.432 52.3569 239.608 54.5566 237.718 52.1455C236.985 51.2099 237.031 49.9301 236.962 48.7568C236.631 43.101 232.544 37.8254 227.042 35.9278C230.671 38.1909 233.429 41.8913 234.402 45.9539C234.733 47.3396 234.814 48.7607 234.78 50.1795C234.734 52.1685 233.439 54.6771 236.066 55.6049C237.913 56.258 239.929 56.0192 241.346 57.6376C242.176 58.5849 242.159 59.7291 241.797 60.8626C241.443 61.9686 241.22 62.9261 241.632 64.0596C242.03 65.1533 242.826 66.1321 243.624 66.9797C244.355 67.7561 245.082 68.565 245.116 69.6739C245.149 70.753 244.565 71.8529 243.817 72.6209C242.398 74.0756 240.135 74.7763 238.143 75.0678C236.273 75.3419 234.41 75.1441 232.943 73.8968C231.57 72.7307 230.871 70.9509 230.222 69.3482C229.853 68.4355 229.526 67.5403 228.751 66.8687C228.081 66.2879 227.225 65.983 226.365 65.7745C224.343 65.2839 221.997 65.5065 220.117 64.5782C218.438 63.7485 218.141 62.0011 218.219 60.3424C218.293 58.7548 218.675 56.8157 217.193 55.7007C216.407 55.1088 215.404 54.8728 214.451 54.6726C213.457 54.4641 212.466 54.2337 211.498 53.9299C209.383 53.2667 207.369 52.2397 206.025 50.4744C204.835 48.9121 204.473 46.9926 204.615 45.0827C204.629 44.8904 204.651 44.6965 204.675 44.5025C204.15 45.479 203.804 46.5447 203.706 47.6463C203.368 51.4723 205.963 55.3627 209.698 56.633C211.567 57.2687 213.814 57.4049 215.045 58.9079C216.205 60.3222 215.955 62.3347 215.837 64.1381C215.72 65.9409 216.005 68.0998 217.655 68.9378C218.797 69.5186 220.081 69.2187 221.384 68.9188C222.46 68.671 223.549 68.4232 224.582 68.671C226.839 69.212 227.817 71.817 227.926 74.0689C228.034 76.3202 227.677 78.7161 228.745 80.7179C229.787 82.6721 232.035 83.8163 234.286 84.0893C236.537 84.3623 238.811 83.8852 240.997 83.2972C243.669 82.578 246.333 81.667 248.587 80.1002C250.841 78.5333 252.663 76.2288 253.103 73.5733C253.543 70.9178 252.37 67.9467 249.939 66.6529" fill="#8E2E1C"/>
<path d="M239.842 195.78L235.875 196.532L234.262 185.55L240.997 184.595L239.842 195.78Z" fill="#FABEB3"/>
<path d="M221.993 114.467L239.116 113.63L240.344 126.916L238.19 150.697L242.013 158.546L240.997 184.595L234.262 185.55L229.09 155.548L221.993 114.467" fill="#252D33"/>
<path d="M240.195 194.76L242.117 200.408L222.709 200.688L222.885 199.437L235.02 194.099L236.657 195.34L240.195 194.76Z" fill="white"/>
<path d="M250.114 195.471L245.897 196.27L243.991 184.596L250.977 184.006L250.114 195.471" fill="#FABEB3"/>
<path d="M248.233 113.898C242.889 114.316 237.559 114.897 232.253 115.645L238.548 153.055L243.991 184.595L250.977 184.006L251.841 165.028C252.128 159.343 250.391 153.735 246.922 149.145L251.16 135.49C252.012 134.09 253.493 125.59 252.529 117.343C252.285 115.254 250.394 113.729 248.233 113.898" fill="#33414B"/>
<path d="M250.491 194.386L252.534 200.391L231.901 200.688L232.088 199.358L244.988 193.683L246.73 195.002L250.491 194.386" fill="white"/>
<path d="M247.961 141.99C246.366 146.199 244.772 150.408 243.177 154.616C242.914 155.313 244.031 155.512 244.292 154.823C245.886 150.614 247.481 146.405 249.075 142.197C249.339 141.5 248.222 141.301 247.961 141.99" fill="#252D33"/>
<path d="M247.501 151.318C247.185 151.236 246.891 151.396 246.748 151.688L245.088 155.082C244.955 155.355 245.133 155.711 245.412 155.783C245.729 155.864 246.023 155.704 246.166 155.412C246.719 154.281 247.272 153.15 247.826 152.019C247.96 151.746 247.781 151.39 247.501 151.318Z" fill="#252D33"/>
<path d="M249.808 117.854C242.587 123.213 232.964 125.282 224.085 123.381C223.365 123.227 223.013 124.296 223.742 124.452C233.043 126.443 243.015 124.303 250.58 118.689C251.172 118.25 250.395 117.418 249.808 117.854" fill="#D1DADD"/>
<path d="M228.145 90.7653C227.67 89.4406 226.886 88.2382 225.804 87.2992C225.58 87.1041 225.228 87.0279 224.988 87.256C224.785 87.4494 224.702 87.839 224.943 88.0481C225.187 88.2589 225.417 88.4832 225.632 88.7214C225.739 88.8408 225.843 88.963 225.943 89.088C225.992 89.1502 226.041 89.2142 226.089 89.2781L226.152 89.3638L226.158 89.3711L226.174 89.3963C226.35 89.6537 226.51 89.9188 226.653 90.1935C226.727 90.3348 226.796 90.4783 226.86 90.6229C226.893 90.6958 226.923 90.7687 226.954 90.8426L226.992 90.9413L227.006 90.9749L227.016 91.0041C227.115 91.2805 227.377 91.5159 227.704 91.4329C227.977 91.3629 228.252 91.0613 228.145 90.7653" fill="#D1DADD"/>
<path d="M222.349 66.603C223.335 66.853 225.352 65.7195 227.337 64.586C229.153 63.5489 230.943 62.5118 231.895 62.5348C233.885 62.583 239.108 62.2831 240.611 67.0358C241.884 71.0641 239.476 76.0741 238.189 80.1837C237.508 82.3548 236.668 84.5159 236.478 86.7403C236.189 90.1587 237.487 93.4415 239.435 96.1396C241.384 98.8327 249.947 106.592 253.052 117.476C246.153 125.294 231.605 127.633 221.992 124.959C221.402 117.586 217.285 96.8331 217.136 89.3022C217.126 88.8515 216.947 88.5448 216.661 88.2965C214.145 86.1124 212.796 82.9306 213.642 79.7599C214.989 74.7046 217.298 72.0104 222.349 66.603Z" fill="#FAB70D"/>
<path d="M217.136 95.0067H217.619V89.3325H217.136V95.0067Z" fill="#E0C2BC"/>
<path d="M236.759 84.9498C236.821 84.6661 236.891 84.383 236.966 84.1005C236.967 84.0999 236.967 84.0999 236.969 84.0999C236.894 84.3808 236.825 84.6622 236.763 84.9442C236.762 84.9459 236.76 84.9481 236.759 84.9498" fill="#D8DAE8"/>
<path d="M236.966 84.1005C237.309 82.8061 237.767 81.5235 238.172 80.2381C237.767 81.5235 237.311 82.8055 236.968 84.0999C236.967 84.0999 236.967 84.0999 236.966 84.1005ZM238.175 80.2291C238.176 80.224 238.178 80.219 238.179 80.2145C238.178 80.219 238.176 80.224 238.175 80.2291ZM238.182 80.2061C238.184 80.1988 238.186 80.191 238.189 80.1837C238.186 80.1915 238.184 80.1988 238.182 80.2061Z" fill="#B59587"/>
<path d="M220.502 99.1606C219.7 98.9902 218.909 98.8035 218.141 98.5933C217.947 97.3712 217.769 96.1693 217.619 95.0067C217.347 92.7576 217.168 90.8079 217.136 89.347C217.136 89.3431 217.136 89.3386 217.136 89.3347C217.136 89.3335 217.136 89.333 217.136 89.3324C217.135 89.3223 217.135 89.3122 217.135 89.3022C217.126 88.8514 216.947 88.5448 216.661 88.2965C215.545 87.3278 214.661 86.1623 214.093 84.8892C215.355 85.0787 216.609 85.1701 217.848 85.1701C224.449 85.1701 230.625 82.5757 235.334 78.3904C235.692 78.0731 236.106 77.9346 236.51 77.9346C237.585 77.9346 238.583 78.9173 238.21 80.1164L238.189 80.1837C238.186 80.191 238.184 80.1988 238.182 80.2061C238.181 80.2089 238.18 80.2117 238.179 80.2145C238.178 80.219 238.176 80.224 238.175 80.2291C238.174 80.2319 238.173 80.2347 238.172 80.2381C237.767 81.5235 237.309 82.8061 236.966 84.1005C236.89 84.383 236.821 84.6661 236.759 84.9498C236.069 85.9162 235.416 86.909 234.755 87.8945C233.377 89.9451 231.899 91.8035 229.999 93.4264C228.147 95.0095 226.102 96.3683 223.928 97.499C222.813 98.0781 221.665 98.6353 220.502 99.1606" fill="#F57D19"/>
<path d="M231.023 65.3798C230.451 66.7056 229.36 67.8049 227.979 68.3498C226.429 68.9608 224.656 68.8397 223.19 68.0683C222.862 67.8962 222.591 68.3912 222.918 68.5633C224.509 69.4003 226.468 69.5489 228.154 68.884C229.669 68.2864 230.902 67.1064 231.533 65.6438C231.676 65.3131 231.167 65.0468 231.023 65.3798" fill="#D1DADD"/>
<path d="M190.286 86.4954L183.516 73.7494L190.55 70.2345L197.32 82.9811L190.286 86.4954" fill="#6EB82E"/>
<path d="M190.497 85.2206L190.753 85.0922L185.098 74.4439L190.214 71.8871L195.738 82.2865L190.364 84.9717L190.497 85.2206L190.753 85.0922L190.497 85.2206L190.629 85.47L196.517 82.5281L190.463 71.132L184.319 74.2023L190.372 85.5984L190.629 85.47L190.497 85.2206Z" fill="#F2E0B4"/>
<path d="M188.692 79.1404C188.195 78.2048 188.574 77.0556 189.539 76.5735C190.503 76.0914 191.688 76.4592 192.186 77.3948C192.682 78.3304 192.303 79.4796 191.338 79.9617C190.374 80.4438 189.189 80.0755 188.692 79.1404Z" fill="#F2E0B4"/>
<path d="M198.201 80.427L198.078 80.371C198.078 80.371 196.659 79.7246 195.536 79.2128C194.958 78.9499 194.279 79.2711 194.138 79.8748C194.01 80.4208 193.847 80.9674 193.825 81.1227C193.601 82.6951 193.657 84.2928 194.033 85.8389C194.238 86.6781 194.431 87.7942 195.343 88.1782C195.488 88.2393 197.186 88.912 197.174 88.9501L197.472 87.9388L198.221 85.3932L198.201 80.427" fill="#FABEB3"/>
<path d="M210.063 86.6618L197.658 84.6829L197.174 88.9507L218.439 95.8195L219.104 91.4509L219.6 88.1832L210.063 86.6618" fill="#FABEB3"/>
<path d="M219.6 88.1832L210.063 86.6618L197.658 84.683L197.275 88.0588C204.309 90.0713 211.354 93.2363 218.787 93.5301L219.104 91.4509L219.6 88.1832" fill="#FABEB3"/>
<path d="M220.987 93.5267C225.951 88.7466 230.875 84.3999 234.759 78.5445C233.002 77.4856 231.529 75.8756 229.769 74.8212L219.6 88.1832L218.787 93.5301C219.516 93.5587 220.25 93.5553 220.987 93.5267" fill="#FABEB3"/>
<path d="M230.394 74.001L229.77 74.8211C231.529 75.8756 233.002 77.4856 234.759 78.5445C230.875 84.3998 225.951 88.7466 220.987 93.5267C220.25 93.5553 219.516 93.5587 218.787 93.5301C211.354 93.2363 205.255 91.2345 198.221 89.222L197.174 88.9507L218.439 95.8195C225.374 98.0596 237.066 78.3651 237.066 78.3651L230.394 74.001Z" fill="#F79984"/>
<path d="M237.506 77.9884C235.188 76.4973 232.87 75.0061 230.553 73.5144C230.292 73.3468 229.907 73.4965 229.77 73.7454C229.611 74.0341 229.747 74.3357 230.008 74.5038L236.962 78.9779C237.222 79.1455 237.607 78.9964 237.744 78.7469C237.902 78.4582 237.767 78.1566 237.506 77.9884Z" fill="#D1DADD"/>
<path d="M215.817 47.1468C219.094 48.7136 223.668 51.192 227.141 48.944C227.768 48.5387 228.223 48.0527 228.54 47.5258C228.932 47.4932 229.331 47.5768 229.74 47.8582C230.834 48.6105 231.298 50.1218 230.865 51.3433C230.404 52.645 229.326 53.0935 227.919 53.2746C228.183 57.0187 229.274 59.8356 230.437 63.6184C230.008 65.548 229.286 66.6652 227.701 67.3934C226.118 68.1227 225.736 68.0986 224.087 67.5229C223.726 65.6338 223.291 63.0685 222.625 61.259C221.39 62.0567 218.456 62.9295 217.125 62.8925C216.622 62.8785 211.302 54.963 211.244 44.0513C212.571 45.2963 214.117 46.3345 215.817 47.1468" fill="#FABEB3"/>
<path d="M219.764 62.4306C220.868 62.1133 221.979 61.676 222.625 61.259C223.204 62.8325 223.609 64.9773 223.941 66.7527L223.785 59.9416L219.764 62.4306Z" fill="#F79984"/>
<path d="M227.381 49.3897C227.749 48.9373 228.217 48.6066 228.737 48.3952C229.018 48.2803 229.164 48.7613 228.887 48.8807C228.427 49.0786 228.03 49.3891 227.712 49.8023C227.561 49.9974 227.435 50.2121 227.332 50.4425C227.239 50.6516 227.211 50.8203 227.038 50.9621C226.945 51.0378 226.794 50.9756 226.762 50.8556C226.629 50.369 227.1 49.7345 227.381 49.3897Z" fill="#F79984"/>
<path d="M218.513 50.6628C218.47 50.4503 218.407 50.2362 218.467 50.0226C218.555 49.7149 218.937 49.5994 219.186 49.813C219.356 49.9593 219.426 50.1712 219.508 50.3719C219.584 50.5557 219.641 50.7312 219.679 50.9257C219.805 51.5642 218.939 51.8232 218.682 51.2172C218.605 51.0328 218.554 50.8579 218.513 50.6628Z" fill="#40261D"/>
<path d="M212.942 51.3114C212.905 51.0983 212.85 50.8825 212.917 50.6706C213.016 50.3656 213.401 50.2625 213.643 50.4839C213.808 50.6358 213.87 50.85 213.946 51.0535C214.015 51.2396 214.066 51.4162 214.098 51.6124C214.202 52.2548 213.327 52.4852 213.092 51.8714C213.02 51.6847 212.975 51.5081 212.942 51.3114" fill="#40261D"/>
<path d="M217.075 58.1522C218.46 57.6807 219.767 57.0002 220.94 56.1459C220.052 57.3321 218.715 57.984 217.318 58.4297C217.242 58.3327 217.163 58.2391 217.075 58.1522Z" fill="white"/>
<path d="M220.941 56.1458C220.999 56.1032 221.06 56.0623 221.117 56.0186C221.137 56.2837 221.127 56.5545 221.092 56.8219C221.013 57.4285 220.79 58.0171 220.388 58.4762C219.809 59.1377 218.96 59.5733 218.068 59.6512C217.916 59.3838 217.769 59.1068 217.605 58.8422C217.516 58.6993 217.421 58.5614 217.318 58.4297C218.715 57.984 220.052 57.332 220.941 56.1458" fill="#B51D24"/>
<path d="M216.708 46.6193C218.138 46.2235 219.589 46.3474 220.926 46.9798C221.244 47.1306 220.987 47.6037 220.668 47.4523C219.466 46.8828 218.166 46.7712 216.878 47.1283C216.537 47.2225 216.368 46.714 216.708 46.6193" fill="#BE2E22"/>
<path d="M211.836 48.5157C212.112 47.977 212.587 47.5784 213.171 47.3816C213.507 47.2689 213.675 47.7779 213.341 47.8901C212.887 48.0425 212.536 48.3492 212.323 48.7651C212.165 49.0735 211.678 48.824 211.836 48.5157" fill="#BE2E22"/>
<path d="M216.26 56.582C215.934 56.3914 215.526 56.4301 215.163 56.383C214.956 56.3561 214.653 56.2765 214.565 56.0707C214.509 55.9373 214.592 55.7815 214.643 55.6576C214.719 55.4715 214.797 55.2853 214.873 55.0992C215.024 54.7253 215.187 54.3565 215.295 53.9685C215.367 53.7073 214.979 53.5548 214.842 53.7908C214.61 54.1905 214.44 54.621 214.257 55.0437C214.091 55.4288 213.829 55.8627 214.014 56.2849C214.158 56.6134 214.498 56.8135 214.843 56.9015C215.043 56.9525 215.256 56.9609 215.463 56.9761C215.667 56.9918 215.854 57.0332 216.052 57.0815C216.363 57.1566 216.532 56.7412 216.26 56.582" fill="#40261D"/>
<path d="M197.892 79.9886C195.859 78.6545 193.575 77.7015 191.182 77.1745C190.456 77.0147 190.193 78.1068 190.919 78.2665C193.222 78.7739 195.391 79.6938 197.347 80.9781C197.606 81.1479 197.993 80.9943 198.129 80.7471C198.289 80.4562 198.151 80.1585 197.892 79.9886Z" fill="#FABEB3"/>
<path d="M195.048 80.4337C193.955 79.4897 192.573 78.8624 191.119 78.6903C190.819 78.6549 190.485 78.7889 190.424 79.1084C190.371 79.3803 190.534 79.7442 190.854 79.7823C191.178 79.8204 191.498 79.8793 191.813 79.9622C192.166 80.0558 192.362 80.1237 192.676 80.2616C193.3 80.5351 193.78 80.8395 194.262 81.2566C194.489 81.4523 194.875 81.4595 195.079 81.2258C195.279 80.9982 195.289 80.6422 195.048 80.4337Z" fill="#FABEB3"/>
<path d="M194.628 82.0123C193.681 81.1361 192.502 80.5116 191.232 80.2061C190.939 80.1355 190.595 80.3294 190.538 80.6243C190.479 80.9264 190.654 81.2224 190.969 81.2981C191.113 81.3329 191.256 81.371 191.398 81.4142C191.465 81.4349 191.531 81.4562 191.597 81.4781L191.696 81.5128H191.698L191.703 81.5156C191.977 81.6283 192.248 81.7432 192.51 81.8828C192.632 81.9478 192.753 82.0168 192.871 82.0891C192.931 82.1255 192.989 82.1625 193.047 82.2007L193.138 82.2612L193.162 82.2786C193.4 82.4512 193.628 82.6357 193.844 82.8352C194.063 83.0382 194.461 83.0325 194.661 82.8044C194.865 82.5701 194.862 82.2287 194.628 82.0123" fill="#FABEB3"/>
<path d="M194.976 84.5237C194.005 83.3891 192.781 82.5504 191.353 82.0437C191.068 81.9428 190.711 82.1889 190.659 82.4613C190.595 82.7904 190.785 83.0275 191.089 83.1357L191.116 83.1446L191.124 83.1475L191.223 83.1861C191.297 83.2153 191.369 83.2456 191.443 83.2769C191.589 83.3397 191.732 83.4076 191.875 83.4793C192.165 83.6267 192.445 83.7944 192.715 83.9754L192.718 83.9771L192.724 83.9827L192.831 84.0595C192.895 84.1061 192.958 84.1543 193.02 84.203C193.144 84.3006 193.265 84.4015 193.383 84.5063C193.5 84.6111 193.614 84.7199 193.725 84.8315C193.78 84.8875 193.834 84.9441 193.888 85.0019L193.958 85.0792C193.963 85.0843 194.074 85.2115 194.001 85.1269C194.194 85.3517 194.522 85.4862 194.799 85.2979C195.03 85.1415 195.182 84.7647 194.976 84.5237" fill="#FABEB3"/>
<path d="M171.543 94.4209L178.914 94.8834L183.34 91.5697H184.555L181.9 88.5723L178.425 88.005L171.543 92.6276V94.4209Z" fill="#F79984"/>
<path d="M171.543 92.6276L174.08 92.0642C175.776 91.6875 177.263 90.7042 178.244 89.3111L179.028 88.1962L183.995 87.3553C184.319 87.3009 184.555 87.0279 184.555 86.7095C184.555 86.3406 184.241 86.0441 183.861 86.0542L177.791 85.3103C176.31 85.1292 174.824 85.6186 173.763 86.6388L171.543 88.7724V92.6276" fill="#FABEB3"/>
<path d="M139.145 192.912H131.658L131.612 190.281H139.204L139.145 192.912" fill="#FABEB3"/>
<path d="M152.138 198.396L139.345 192.912H131.077L129.722 199.684H152.888L152.138 198.396" fill="#ED1945"/>
<path d="M129.722 199.684L129.508 200.754H153.51L152.888 199.684H129.722Z" fill="white"/>
<path d="M102.953 141.051V111.779L106.941 113.264C109.378 114.171 110.604 116.816 109.686 119.186C109.055 120.814 109.581 122.65 110.986 123.73L141.363 147.072C142.752 148.139 143.517 149.795 143.416 151.51L141.117 190.281H128.843L127.543 157.038L102.953 141.051" fill="#2E535B"/>
<path d="M104.057 113.63L104.161 123.807L123.465 144.774C124.914 146.349 125.7 148.395 125.664 150.506C125.589 154.94 122.79 158.903 118.554 160.573L88.3415 172.479L84.1863 159.695L109.626 150.216L95.9711 144.802C85.3648 140.596 78.434 130.586 78.434 119.472L104.057 113.63" fill="#2E535B"/>
<path d="M117.304 150.697C112.964 150.385 108.728 149.177 104.886 147.2C104.227 146.861 103.702 147.86 104.36 148.198C108.395 150.274 112.816 151.489 117.369 151.817C118.108 151.87 118.037 150.75 117.304 150.697" fill="#252D33"/>
<path d="M113.136 152.533L110.239 150.808C109.981 150.655 109.597 150.721 109.443 150.986C109.289 151.248 109.351 151.595 109.626 151.759L112.523 153.483C112.78 153.637 113.164 153.57 113.32 153.305C113.473 153.043 113.412 152.696 113.136 152.533Z" fill="#252D33"/>
<path d="M125.347 81.69C126.894 79.1248 128.452 76.7047 131.108 78.2676C135.241 80.6989 139.058 82.375 143.948 84.1515L139.093 94.4371C134.223 93.1837 128.56 92.4628 124.133 89.8583C121.489 88.3032 123.767 84.3107 125.347 81.69Z" fill="#ED1945"/>
<path d="M149.344 87.1159L144.166 84.7816C143.02 88.1777 141.331 91.2811 138.955 93.9472L148.825 96.9357L171.543 94.4209V88.7724L149.344 87.1159" fill="#FABEB3"/>
<path d="M147.863 95.0397L171.543 92.8467V88.7724L149.344 87.1159L144.669 85.0081C144.508 88.0139 143.635 90.675 142.047 92.9891L147.863 95.0397Z" fill="#FABEB3"/>
<path d="M147.863 95.0398L142.047 92.9892C143.635 90.6751 144.507 88.014 144.669 85.0081L143.948 84.683L143.72 84.5882C142.925 87.9349 141.559 91.2547 139.025 93.9685L148.825 96.9357L171.543 94.4209V92.8468L147.863 95.0398" fill="#F79984"/>
<path d="M143.549 84.1869C142.479 87.6305 140.852 90.8707 138.721 93.8132C138.292 94.4041 139.266 95.0084 139.693 94.4186C141.879 91.401 143.556 88.0515 144.653 84.5198C144.867 83.8303 143.764 83.4934 143.549 84.1869Z" fill="#D61E25"/>
<path d="M110.305 116.47C110.63 114.226 111.375 112.053 112.234 109.953C115.69 101.495 120.625 93.2846 127.035 86.6153C129.112 84.4537 131.381 82.4833 133.831 80.7494C127.283 74.2107 116.709 68.4586 106.366 66.2942C102.068 65.395 97.745 67.708 96.2081 71.7032L88.3409 81.1395C77.1434 94.5711 73.8713 112.651 79.6837 128.978V128.978C92.9557 120.222 107.25 119.07 110.297 120.074C110.083 118.894 110.133 117.663 110.305 116.47" fill="#ED1A3C"/>
<path d="M97.8843 113.735C93.1262 114.25 88.4531 115.385 84.0562 117.322C80.0831 99.9819 89.7657 84.2984 101.004 71.336C102.609 69.4844 99.853 67.0016 98.1242 68.745C97.304 69.5724 96.6439 70.5697 96.2081 71.7032L88.3409 81.1395C77.1434 94.5711 73.8713 112.651 79.6837 128.978V128.978C80.8628 128.201 82.05 127.485 83.236 126.824C83.488 125.489 83.9273 124.185 84.6342 122.928C87.1121 117.722 92.8349 116.807 98.2201 115.483C99.3264 115.211 99.0183 113.613 97.8843 113.735Z" fill="#D51743"/>
<path d="M108.168 116.233C104.555 116.055 100.967 116.656 97.6121 117.96C96.9231 118.228 97.4803 119.21 98.1646 118.945C101.325 117.716 104.735 117.186 108.132 117.354C108.876 117.39 108.911 116.269 108.168 116.233" fill="#D51743"/>
<path d="M123.829 89.5387C117.721 95.9815 113.215 103.798 110.783 112.231C110.091 114.629 109.576 117.072 109.221 119.538C109.118 120.252 110.273 120.295 110.376 119.585C111.592 111.154 114.894 103.043 119.904 96.0561C121.335 94.0598 122.905 92.1628 124.601 90.3734C125.101 89.8459 124.333 89.0078 123.829 89.5387Z" fill="#D61E25"/>
<path d="M86.7451 106.191C86.7451 106.191 90.5755 107.847 93.1453 109.195C93.9458 111.983 91.8193 114.624 89.4495 115.815C87.53 116.78 85.0822 116.669 83.2632 115.535C81.4442 114.401 80.3241 112.287 80.4322 110.192L86.7451 106.191" fill="#FABEB3"/>
<path d="M98.2698 116.691C97.7485 113.443 95.7105 110.65 92.7731 109.029C91.5737 108.368 90.4859 110.157 91.6853 110.819C94.1868 112.199 95.7619 114.485 96.2029 117.235C96.4139 118.552 98.4797 118.001 98.2698 116.691" fill="#FABEB3"/>
<path d="M95.829 118.275C95.3082 115.028 93.2696 112.234 90.3328 110.614C89.1334 109.952 88.0456 111.741 89.2444 112.402C91.7466 113.783 93.321 116.069 93.7621 118.819C93.9736 120.135 96.0394 119.586 95.829 118.275" fill="#FABEB3"/>
<path d="M92.7331 119.113C92.2118 115.866 90.1738 113.073 87.2364 111.452C86.0376 110.79 84.9498 112.579 86.1486 113.24C88.6501 114.621 90.2252 116.907 90.6662 119.657C90.8772 120.974 92.943 120.424 92.7331 119.113" fill="#FABEB3"/>
<path d="M89.5091 119.101C88.9889 115.853 86.9503 113.06 84.0129 111.439C82.8141 110.778 81.7263 112.566 82.9251 113.228C85.4273 114.609 87.0017 116.895 87.4428 119.644C87.6543 120.962 89.7195 120.411 89.5091 119.101" fill="#FABEB3"/>
<path d="M86.745 106.191L78.9357 84.4918L101.351 76.7523L96.6416 67.038L67.6722 76.2859C65.8758 76.8594 65.0065 78.8327 65.8209 80.4881L80.4321 110.192L86.745 106.191Z" fill="#FABEB3"/>
<path d="M101.351 76.7524L96.6416 67.038L88.538 69.6245C88.3045 72.7206 88.1988 75.7859 89.0918 78.6101C85.0261 80.7959 80.1588 82.4529 75.8041 83.67C77.5543 84.8248 78.9265 86.1842 80.0923 87.7062L78.9357 84.4918L101.351 76.7524" fill="#F79984"/>
<path d="M75.8041 83.67C80.1587 82.4529 85.0261 80.7958 89.0917 78.6101C88.1987 75.7859 88.3045 72.7206 88.538 69.6245L67.6722 76.2859C65.8758 76.8594 65.0065 78.8327 65.8209 80.4881L80.4321 110.192L86.7451 106.191L80.0923 87.7062C78.9264 86.1842 77.5543 84.8248 75.8041 83.67" fill="#FABEB3"/>
<path d="M85.4082 82.3263C90.5385 80.4018 95.3631 79.1354 100.956 78.0737C104.019 77.4918 106.56 74.5538 105.834 71.2929C105.149 68.2226 107.608 66.348 104.272 66.1007C95.822 65.4757 87.315 68.7775 81.7818 70.7749C82.1141 74.7012 83.3603 78.743 85.4082 82.3263" fill="#ED1945"/>
<path d="M81.5731 71.0036C81.9893 74.9877 83.2811 78.8271 85.3689 82.282C85.7463 82.9054 86.7185 82.2994 86.3428 81.6777C84.3574 78.3938 83.1233 74.7326 82.728 70.9447C82.6528 70.23 81.4974 70.2832 81.5731 71.0036Z" fill="#D61E25"/>
<path d="M129.588 55.7674C131.739 54.8234 132.933 52.5362 132.709 50.3993C132.486 48.2623 131.013 46.33 129.074 45.0704C127.136 43.8107 124.771 43.1661 122.398 42.8751C120.399 42.6301 118.34 42.6245 116.388 43.0842C115.398 43.318 114.371 43.7233 113.866 44.5221C113.361 45.3204 113.704 46.5682 114.702 46.7706C113.868 46.64 112.963 47.0576 112.597 47.7427C112.231 48.4282 112.435 49.3213 113.073 49.8224C112.109 49.7316 111.111 50.2479 110.717 51.0417C110.323 51.836 110.563 52.8457 111.284 53.4264C110.3 53.7409 109.896 54.8604 110.117 55.7764C110.337 56.6924 111.011 57.4576 111.624 58.2166C113.175 60.1366 114.454 62.2321 115.421 64.4385C116.85 63.9441 118.195 63.2546 119.395 62.4008" fill="#362315"/>
<path d="M130.492 50.6C129.241 50.3645 127.989 50.4452 126.724 50.5904C125.647 50.7138 122.354 51.4022 122.354 51.4022C121.571 53.6238 121.186 55.0998 119.339 56.6173C119.163 56.7614 118.967 56.911 118.738 56.9166C118.43 56.925 118.091 56.6958 117.798 56.6117C117.384 56.4917 116.979 56.3448 116.575 56.1935C115.309 55.7192 113.933 55.0521 112.695 55.9474C111.665 56.6924 111.392 58.2043 111.974 59.3154C112.556 60.4259 113.862 61.093 115.146 61.084C115.659 64.6219 115.557 65.9235 115.005 69.4558C115.639 71.1331 117.273 73.2263 118.787 73.686C120.301 74.1462 122.013 74.1591 123.418 73.4421C123.496 71.7043 123.667 70.008 124.029 68.3043C125.218 68.4983 126.495 68.5577 127.683 68.3621C128.135 68.2881 128.611 68.1687 128.913 67.8357C129.139 67.5851 129.233 67.2499 129.319 66.9275C130.701 61.7758 131.046 56.0292 130.492 50.6" fill="#FABEB3"/>
<path d="M123.418 73.4421C123.496 71.7043 123.667 70.008 124.029 68.3043C124.694 68.4131 125.386 68.477 126.076 68.4798C124.528 68.2074 123.453 67.6305 122.19 67.2813C122.403 69.5348 123.082 73.6136 123.418 73.4421Z" fill="#F79984"/>
<path d="M114.891 57.5899C114.502 57.2294 114.039 56.9901 113.547 56.8639C113.279 56.7955 113.211 57.244 113.474 57.3169C113.912 57.4385 114.308 57.6684 114.647 57.9997C114.808 58.1566 114.949 58.3332 115.071 58.5272C115.182 58.7032 115.228 58.8517 115.401 58.9577C115.494 59.0143 115.622 58.9398 115.635 58.8288C115.691 58.3758 115.187 57.8646 114.891 57.5899" fill="#F79984"/>
<path d="M124.408 55.8762C124.42 55.6805 124.449 55.481 124.367 55.2965C124.249 55.0314 123.891 54.9748 123.695 55.1962C123.562 55.3481 123.527 55.5466 123.479 55.7366C123.435 55.9109 123.406 56.0752 123.397 56.254C123.367 56.8415 124.178 56.9682 124.328 56.3936C124.375 56.2193 124.397 56.0556 124.408 55.8762" fill="#40261D"/>
<path d="M130.189 55.4131C130.149 55.2209 130.126 55.0207 129.998 54.8626C129.815 54.6345 129.454 54.667 129.323 54.9293C129.233 55.1093 129.251 55.31 129.254 55.5056C129.256 55.6845 129.271 55.8504 129.309 56.0264C129.433 56.6021 130.249 56.5265 130.247 55.9339C130.246 55.7534 130.225 55.5897 130.189 55.4131Z" fill="#40261D"/>
<path d="M123.83 64.8052C124.838 64.8893 125.762 65.2256 126.586 65.7929C126.805 65.9437 126.542 66.2571 126.324 66.1063C125.558 65.5793 124.701 65.2822 123.766 65.2049C123.499 65.1825 123.564 64.7833 123.83 64.8052Z" fill="#F79984"/>
<path d="M128.717 51.738C129.432 51.2828 130.73 51.9746 131.092 52.6232C131.219 52.8502 130.948 53.1849 130.69 53.1114C130.343 53.0133 130.044 52.8199 129.704 52.7045C129.375 52.5923 128.959 52.5907 128.7 52.3513C128.524 52.1887 128.486 51.8843 128.717 51.738" fill="#362315"/>
<path d="M122.486 52.4807C123.175 51.6813 124.71 51.4632 125.721 51.5322C126.203 51.5653 126.144 52.2542 125.706 52.3237C125.174 52.4078 124.659 52.4689 124.141 52.6298C123.701 52.7666 123.257 52.9852 122.797 53.0301C122.499 53.0587 122.287 52.7111 122.486 52.4807" fill="#362315"/>
<path d="M123.016 60.2622C124.694 61.1939 126.528 61.861 128.424 62.2304C128.204 62.5202 128.036 62.8431 127.889 63.1772C126.19 62.8515 124.561 62.2304 123.192 61.2567C123.1 60.9299 123.039 60.5952 123.016 60.2622Z" fill="#F6F6F7"/>
<path d="M127.889 63.1772C127.732 63.5343 127.599 63.9038 127.458 64.262C126.336 64.3152 125.203 63.9172 124.365 63.1929C123.782 62.6907 123.4 61.9967 123.192 61.2567C124.561 62.2304 126.19 62.8515 127.889 63.1772" fill="#B51D24"/>
<path d="M115.046 69.0892C115.734 72.8787 119.588 74.8733 123.236 73.3838C123.848 73.1338 124.116 74.1042 123.511 74.3514C119.362 76.0449 114.829 73.6523 114.049 69.356C113.934 68.7248 114.931 68.454 115.046 69.0892Z" fill="#D61E25"/>
<path d="M133.094 41.5488C131.689 42.2714 130.296 43.0231 128.926 43.813C128.851 43.7463 128.776 43.679 128.701 43.6061C125.984 41.0779 121.95 39.9623 118.268 40.7298C114.592 41.4927 111.378 44.1107 109.968 47.4966C108.702 50.54 108.748 54.4478 110.656 57.0938C110.586 57.1499 110.523 57.2115 110.454 57.2732C109.91 57.7721 110.702 58.5906 111.245 58.0916C114.65 54.9748 118.268 52.0878 122.071 49.4642C124.562 47.7371 127.129 46.1288 129.77 44.632C131.048 43.9032 132.337 43.2081 133.649 42.5354C134.308 42.1991 133.753 41.2124 133.094 41.5488" fill="#ED1945"/>
<path d="M129.43 60.3155C128.956 58.6752 128.482 57.0349 128.008 55.3947C127.908 55.0482 127.343 55.166 127.443 55.5141C127.891 57.063 128.339 58.6119 128.786 60.1608C128.365 60.2437 127.944 60.3267 127.524 60.4102C127.159 60.4825 127.282 61.0302 127.647 60.9579C128.167 60.8548 128.688 60.7522 129.209 60.649C129.355 60.6199 129.471 60.4601 129.43 60.3155" fill="#40261D"/>
<path d="M127.025 43.7015C121.72 47.6558 116.415 51.6102 111.11 55.564C110.519 56.0046 111.296 56.836 111.882 56.3993C117.187 52.4449 122.492 48.4905 127.797 44.5362C128.388 44.0956 127.611 43.2642 127.025 43.7015" fill="#D61E25"/>
<path d="M161.716 98.7777H207.394L205.809 125.267H163.301L161.716 98.7777" fill="#D51743"/>
<path d="M205.809 125.267L207.394 132.886H161.716L163.301 125.267H205.809" fill="#ED1945"/>
<path d="M191.026 102.395V96.7074C191.026 93.4415 188.531 90.5819 185.18 90.2759C181.332 89.9244 178.085 92.863 178.085 96.523V102.395C178.085 102.678 177.848 102.908 177.556 102.908C177.264 102.908 177.027 102.678 177.027 102.395V96.7343C177.027 92.808 180.132 89.4249 184.176 89.2315C188.499 89.0246 192.083 92.3753 192.083 96.523V102.395C192.083 102.678 191.846 102.908 191.554 102.908C191.262 102.908 191.026 102.678 191.026 102.395Z" fill="#252D33"/>
<path d="M187.476 91.9734C187.286 91.7004 187.36 91.3304 187.641 91.1465L190.027 89.5842C190.308 89.4003 190.69 89.4721 190.88 89.744C191.069 90.0164 190.996 90.387 190.715 90.5708L188.329 92.1332C188.047 92.317 187.666 92.2453 187.476 91.9734Z" fill="#FABEB3"/>
<path d="M188.251 93.0446C188.06 92.7716 188.135 92.4016 188.415 92.2178L190.801 90.6554C191.082 90.4716 191.464 90.5433 191.654 90.8158C191.843 91.0882 191.769 91.4582 191.489 91.6421L189.103 93.2044C188.822 93.3888 188.44 93.3165 188.251 93.0446Z" fill="#FABEB3"/>
<path d="M189.283 94.2191C189.093 93.9466 189.167 93.5767 189.448 93.3928L191.834 91.8304C192.115 91.646 192.497 91.7183 192.687 91.9902C192.876 92.2626 192.802 92.6326 192.521 92.8171L190.135 94.3794C189.854 94.5633 189.472 94.4915 189.283 94.2191Z" fill="#FABEB3"/>
<path d="M190.051 95.2192C189.862 94.9461 189.935 94.5762 190.216 94.3923L192.294 93.0318C192.575 92.8479 192.956 92.9196 193.146 93.1921C193.336 93.4651 193.262 93.8351 192.981 94.0189L190.904 95.3795C190.623 95.5633 190.241 95.4916 190.051 95.2192Z" fill="#FABEB3"/>
<path d="M92.6661 181.157C89.1178 170.539 85.5689 159.921 82.0199 149.303C81.5651 147.94 79.3126 148.456 79.7733 149.833C83.3222 160.451 86.8711 171.069 90.4194 181.687C90.8749 183.05 93.1268 182.534 92.6661 181.157Z" fill="#51C292"/>
<path d="M80.4605 143.697C79.9646 142.363 79.4692 141.028 78.9733 139.694C78.8681 139.41 78.7369 139.175 78.4635 139.009C78.2202 138.861 77.8572 138.791 77.5763 138.87C77.0277 139.024 76.507 139.634 76.7266 140.225C77.222 141.559 77.7179 142.893 78.2132 144.228C78.319 144.511 78.4502 144.746 78.7236 144.913C78.9669 145.061 79.3299 145.131 79.6102 145.052C80.1588 144.897 80.6801 144.288 80.4605 143.697Z" fill="#51C292"/>
<path d="M69.8068 110.507C68.4184 106.027 67.0301 101.546 65.6423 97.0657C65.2163 95.6906 62.965 96.208 63.395 97.596C64.7834 102.077 66.1717 106.557 67.5595 111.038C67.9861 112.413 70.2368 111.895 69.8068 110.507Z" fill="#51C292"/>
<path d="M185.381 91.6605C185.73 91.3668 185.767 90.8538 185.464 90.5153L182.89 87.6411C182.586 87.3031 182.057 87.2667 181.709 87.561C181.36 87.8553 181.323 88.3677 181.626 88.7062L184.201 91.5798C184.504 91.9184 185.033 91.9543 185.381 91.6605" fill="#FABEB3"/>
<path d="M183.257 92.715C183.606 92.4207 183.643 91.9078 183.34 91.5698L180.765 88.6962C180.461 88.357 179.933 88.3217 179.584 88.6155C179.235 88.9098 179.198 89.4227 179.501 89.7607L182.076 92.6343C182.379 92.9735 182.908 93.0088 183.257 92.715Z" fill="#FABEB3"/>
<path d="M181.47 93.9096C181.818 93.6148 181.855 93.1024 181.552 92.7644L178.978 89.8902C178.675 89.5517 178.146 89.5158 177.797 89.8095C177.448 90.1038 177.411 90.6168 177.714 90.9548L180.289 93.8289C180.592 94.1675 181.12 94.2034 181.47 93.9096" fill="#FABEB3"/>
<path d="M180.094 94.9641C180.443 94.6698 180.481 94.1568 180.177 93.8188L177.935 91.3163C177.632 90.9777 177.103 90.9424 176.754 91.2362C176.406 91.5305 176.368 92.0434 176.672 92.3814L178.914 94.8833C179.216 95.2219 179.745 95.2578 180.094 94.9641" fill="#FABEB3"/>
</svg>
